<?xml version="1.0" standalone="no"?>
<!DOCTYPE svg PUBLIC "-//W3C//DTD SVG 20010904//EN"
 "http://www.w3.org/TR/2001/REC-SVG-20010904/DTD/svg10.dtd">
<svg version="1.0" xmlns="http://www.w3.org/2000/svg"
 width="256.000000pt" height="256.000000pt" viewBox="0 0 256.000000 256.000000"
 preserveAspectRatio="xMidYMid meet">
<metadata>
Created by potrace 1.14, written by Peter Selinger 2001-2017
</metadata>
<g transform="translate(0.000000,256.000000) scale(0.100000,-0.100000)"
fill="#000000" stroke="none">
<path d="M664 2545 c-74 -51 -46 -184 43 -201 18 -3 34 -11 34 -18 5 -43 3
-1390 -2 -1398 -3 -5 -9 -9 -13 -8 -11 4 -120 -11 -161 -22 -22 -5 -47 -11
-55 -13 -48 -9 -185 -62 -252 -97 -94 -49 -195 -139 -228 -204 -31 -61 -34
-169 -6 -224 73 -142 241 -246 506 -315 31 -8 73 -17 95 -21 22 -3 60 -10 85
-14 80 -15 486 -11 580 6 195 34 349 86 462 154 l66 40 139 0 c76 0 149 2 163
4 14 2 44 7 67 10 237 37 391 150 369 271 -9 44 -69 108 -136 143 -47 25 -160
58 -261 77 -25 4 -26 7 -21 54 13 140 -72 278 -208 337 -69 30 -189 27 -261
-8 -72 -33 -134 -95 -166 -164 -27 -59 -24 -58 -108 -36 -22 6 -62 14 -90 18
-27 3 -53 8 -56 9 -3 2 -54 7 -115 11 -60 3 -112 8 -115 10 -7 4 -6 391 1 396
3 2 46 22 95 44 115 50 126 57 129 79 2 12 27 29 72 50 55 25 73 30 94 22 33
-13 110 24 110 52 0 26 135 86 164 73 15 -7 48 4 140 45 177 79 177 85 11 164
-69 32 -127 59 -129 59 -3 0 -37 15 -78 34 -40 19 -179 82 -308 140 -331 150
-305 134 -305 186 -1 44 0 45 39 55 68 17 106 98 75 158 -28 54 -39 57 -249
57 -156 0 -200 -3 -216 -15z"/>
</g>
</svg>
